<svg width="348" height="119" viewBox="0 0 348 119" fill="none" xmlns="http://www.w3.org/2000/svg">
<path d="M33.8281 33.4688V85.5312C33.8281 88.4135 36.1646 90.75 39.0469 90.75C41.9291 90.75 44.2656 88.4135 44.2656 85.5312V33.4688C44.2656 30.5865 41.9291 28.25 39.0469 28.25C36.1646 28.25 33.8281 30.5865 33.8281 33.4688ZM54.2812 13.6354V105.365C54.2812 108.247 56.6178 110.583 59.5 110.583C62.3822 110.583 64.7188 108.247 64.7188 105.365V13.6354C64.7188 10.7532 62.3822 8.41667 59.5 8.41667C56.6178 8.41667 54.2812 10.7532 54.2812 13.6354ZM13.375 53.3021V65.6979C13.375 68.5802 15.7115 70.9167 18.5938 70.9167C21.476 70.9167 23.8125 68.5802 23.8125 65.6979V53.3021C23.8125 50.4198 21.476 48.0833 18.5938 48.0833C15.7115 48.0833 13.375 50.4199 13.375 53.3021ZM95.1875 53.3021V65.6979C95.1875 68.5802 97.524 70.9167 100.406 70.9167C103.288 70.9167 105.625 68.5802 105.625 65.6979V53.3021C105.625 50.4198 103.288 48.0833 100.406 48.0833C97.524 48.0833 95.1875 50.4199 95.1875 53.3021ZM85.1719 59.5V33.4688C85.1719 30.5865 82.8354 28.25 79.9531 28.25C77.0709 28.25 74.7344 30.5865 74.7344 33.4688V59.5V85.5312C74.7344 88.4135 77.0709 90.75 79.9531 90.75C82.8354 90.75 85.1719 88.4135 85.1719 85.5312V59.5Z" fill="url(#paint0_linear_4_66)" stroke="url(#paint1_linear_4_66)" stroke-width="3"/>
<path d="M138.304 37.968C140.949 37.968 143.275 38.5013 145.28 39.568C147.285 40.592 148.864 41.936 150.016 43.6V38.544H159.04V74.256C159.04 77.5413 158.379 80.464 157.056 83.024C155.733 85.6267 153.749 87.6747 151.104 89.168C148.459 90.704 145.259 91.472 141.504 91.472C136.469 91.472 132.331 90.2987 129.088 87.952C125.888 85.6053 124.075 82.4053 123.648 78.352H132.544C133.013 79.9733 134.016 81.2533 135.552 82.192C137.131 83.1733 139.029 83.664 141.248 83.664C143.851 83.664 145.963 82.8747 147.584 81.296C149.205 79.76 150.016 77.4133 150.016 74.256V68.752C148.864 70.416 147.264 71.8027 145.216 72.912C143.211 74.0213 140.907 74.576 138.304 74.576C135.317 74.576 132.587 73.808 130.112 72.272C127.637 70.736 125.675 68.5813 124.224 65.808C122.816 62.992 122.112 59.7707 122.112 56.144C122.112 52.56 122.816 49.3813 124.224 46.608C125.675 43.8347 127.616 41.7013 130.048 40.208C132.523 38.7147 135.275 37.968 138.304 37.968ZM150.016 56.272C150.016 54.096 149.589 52.24 148.736 50.704C147.883 49.1253 146.731 47.9307 145.28 47.12C143.829 46.2667 142.272 45.84 140.608 45.84C138.944 45.84 137.408 46.2453 136 47.056C134.592 47.8667 133.44 49.0613 132.544 50.64C131.691 52.176 131.264 54.0107 131.264 56.144C131.264 58.2773 131.691 60.1547 132.544 61.776C133.44 63.3547 134.592 64.5707 136 65.424C137.451 66.2773 138.987 66.704 140.608 66.704C142.272 66.704 143.829 66.2987 145.28 65.488C146.731 64.6347 147.883 63.44 148.736 61.904C149.589 60.3253 150.016 58.448 150.016 56.272ZM176.751 44.048C177.903 42.1707 179.396 40.6987 181.231 39.632C183.108 38.5653 185.242 38.032 187.631 38.032V47.44H185.263C182.447 47.44 180.314 48.1013 178.863 49.424C177.455 50.7467 176.751 53.0507 176.751 56.336V74H167.791V38.544H176.751V44.048ZM209.41 74.576C205.997 74.576 202.925 73.8293 200.194 72.336C197.463 70.8 195.309 68.6453 193.73 65.872C192.194 63.0987 191.426 59.8987 191.426 56.272C191.426 52.6453 192.215 49.4453 193.794 46.672C195.415 43.8987 197.613 41.7653 200.386 40.272C203.159 38.736 206.253 37.968 209.666 37.968C213.079 37.968 216.173 38.736 218.946 40.272C221.719 41.7653 223.895 43.8987 225.474 46.672C227.095 49.4453 227.906 52.6453 227.906 56.272C227.906 59.8987 227.074 63.0987 225.41 65.872C223.789 68.6453 221.57 70.8 218.754 72.336C215.981 73.8293 212.866 74.576 209.41 74.576ZM209.41 66.768C211.031 66.768 212.546 66.384 213.954 65.616C215.405 64.8053 216.557 63.6107 217.41 62.032C218.263 60.4533 218.69 58.5333 218.69 56.272C218.69 52.9013 217.794 50.32 216.002 48.528C214.253 46.6933 212.098 45.776 209.538 45.776C206.978 45.776 204.823 46.6933 203.074 48.528C201.367 50.32 200.514 52.9013 200.514 56.272C200.514 59.6427 201.346 62.2453 203.01 64.08C204.717 65.872 206.85 66.768 209.41 66.768ZM250.223 74.576C246.809 74.576 243.737 73.8293 241.007 72.336C238.276 70.8 236.121 68.6453 234.543 65.872C233.007 63.0987 232.239 59.8987 232.239 56.272C232.239 52.6453 233.028 49.4453 234.607 46.672C236.228 43.8987 238.425 41.7653 241.199 40.272C243.972 38.736 247.065 37.968 250.479 37.968C253.892 37.968 256.985 38.736 259.759 40.272C262.532 41.7653 264.708 43.8987 266.287 46.672C267.908 49.4453 268.719 52.6453 268.719 56.272C268.719 59.8987 267.887 63.0987 266.222 65.872C264.601 68.6453 262.383 70.8 259.567 72.336C256.793 73.8293 253.679 74.576 250.223 74.576ZM250.223 66.768C251.844 66.768 253.359 66.384 254.767 65.616C256.217 64.8053 257.369 63.6107 258.223 62.032C259.076 60.4533 259.503 58.5333 259.503 56.272C259.503 52.9013 258.607 50.32 256.815 48.528C255.065 46.6933 252.911 45.776 250.351 45.776C247.791 45.776 245.636 46.6933 243.887 48.528C242.18 50.32 241.327 52.9013 241.327 56.272C241.327 59.6427 242.159 62.2453 243.823 64.08C245.529 65.872 247.663 66.768 250.223 66.768ZM290.075 65.744L299.035 38.544H308.571L295.451 74H284.571L271.515 38.544H281.115L290.075 65.744ZM328.388 65.744L337.348 38.544H346.884L333.764 74H322.884L309.828 38.544H319.428L328.388 65.744Z" fill="#E50914"/>
<defs>
<linearGradient id="paint0_linear_4_66" x1="20" y1="59" x2="111.5" y2="91.5" gradientUnits="userSpaceOnUse">
<stop stop-color="#720909"/>
<stop offset="0.463542" stop-color="#B10B0B"/>
<stop offset="1" stop-color="#E50914"/>
</linearGradient>
<linearGradient id="paint1_linear_4_66" x1="104" y1="72" x2="15" y2="59" gradientUnits="userSpaceOnUse">
<stop stop-color="#E50914"/>
<stop offset="0.46875" stop-color="#B10B0B"/>
<stop offset="1" stop-color="#720909"/>
</linearGradient>
</defs>
</svg>
