<svg width="186" height="181" viewBox="0 0 186 181" fill="none" xmlns="http://www.w3.org/2000/svg">
<circle cx="93.5" cy="90.5" r="90.5" fill="white"/>
<rect width="186" height="181" rx="90.5" fill="#111111"/>
<path d="M53.7188 50.25V130.75C53.7188 134.34 56.6289 137.25 60.2188 137.25H61.8438C65.4336 137.25 68.3438 134.34 68.3438 130.75V50.25C68.3438 46.6601 65.4336 43.75 61.8438 43.75H60.2188C56.6289 43.75 53.7188 46.6601 53.7188 50.25ZM85.6875 20.0833V160.917C85.6875 164.507 88.5976 167.417 92.1875 167.417H93.8125C97.4024 167.417 100.312 164.507 100.312 160.917V20.0833C100.312 16.4935 97.4024 13.5833 93.8125 13.5833H92.1875C88.5977 13.5833 85.6875 16.4935 85.6875 20.0833ZM21.75 80.4166V100.583C21.75 104.173 24.6601 107.083 28.25 107.083H29.875C33.4648 107.083 36.375 104.173 36.375 100.583V80.4167C36.375 76.8268 33.4649 73.9167 29.875 73.9167H28.25C24.6602 73.9167 21.75 76.8268 21.75 80.4166ZM125.781 43.75H124.156C120.566 43.75 117.656 46.6601 117.656 50.25V90.5V130.75C117.656 134.34 120.566 137.25 124.156 137.25H125.781C129.371 137.25 132.281 134.34 132.281 130.75V90.5V50.25C132.281 46.6601 129.371 43.75 125.781 43.75ZM149.625 80.4166V100.583C149.625 104.173 152.535 107.083 156.125 107.083H157.75C161.34 107.083 164.25 104.173 164.25 100.583V80.4167C164.25 76.8268 161.34 73.9167 157.75 73.9167H156.125C152.535 73.9167 149.625 76.8268 149.625 80.4166Z" fill="url(#paint0_linear_4_67)" stroke="url(#paint1_linear_4_67)" stroke-width="3"/>
<defs>
<linearGradient id="paint0_linear_4_67" x1="31.2605" y1="89.7395" x2="173.386" y2="141.616" gradientUnits="userSpaceOnUse">
<stop stop-color="#720909"/>
<stop offset="0.463542" stop-color="#B10B0B"/>
<stop offset="1" stop-color="#E50914"/>
</linearGradient>
<linearGradient id="paint1_linear_4_67" x1="162.555" y1="109.513" x2="23.608" y2="88.6564" gradientUnits="userSpaceOnUse">
<stop stop-color="#E50914"/>
<stop offset="0.46875" stop-color="#B10B0B"/>
<stop offset="1" stop-color="#720909"/>
</linearGradient>
</defs>
</svg>
