<svg width="374" height="119" viewBox="0 0 374 119" fill="none" xmlns="http://www.w3.org/2000/svg">
<path d="M33.8281 33.4688V85.5312C33.8281 88.4135 36.1646 90.75 39.0469 90.75C41.9291 90.75 44.2656 88.4135 44.2656 85.5312V33.4688C44.2656 30.5865 41.9291 28.25 39.0469 28.25C36.1646 28.25 33.8281 30.5865 33.8281 33.4688ZM54.2812 13.6354V105.365C54.2812 108.247 56.6178 110.583 59.5 110.583C62.3822 110.583 64.7188 108.247 64.7188 105.365V13.6354C64.7188 10.7532 62.3822 8.41667 59.5 8.41667C56.6178 8.41667 54.2812 10.7532 54.2812 13.6354ZM13.375 53.3021V65.6979C13.375 68.5802 15.7115 70.9167 18.5938 70.9167C21.476 70.9167 23.8125 68.5802 23.8125 65.6979V53.3021C23.8125 50.4198 21.476 48.0833 18.5938 48.0833C15.7115 48.0833 13.375 50.4199 13.375 53.3021ZM95.1875 53.3021V65.6979C95.1875 68.5802 97.524 70.9167 100.406 70.9167C103.288 70.9167 105.625 68.5802 105.625 65.6979V53.3021C105.625 50.4198 103.288 48.0833 100.406 48.0833C97.524 48.0833 95.1875 50.4199 95.1875 53.3021ZM85.1719 59.5V33.4688C85.1719 30.5865 82.8354 28.25 79.9531 28.25C77.0709 28.25 74.7344 30.5865 74.7344 33.4688V59.5V85.5312C74.7344 88.4135 77.0709 90.75 79.9531 90.75C82.8354 90.75 85.1719 88.4135 85.1719 85.5312V59.5Z" fill="url(#paint0_linear_22_2)" stroke="url(#paint1_linear_22_2)" stroke-width="3"/>
<path d="M144.064 38.032C148.288 38.032 151.701 39.376 154.304 42.064C156.907 44.7093 158.208 48.4213 158.208 53.2V74H149.248V54.416C149.248 51.6 148.544 49.4453 147.136 47.952C145.728 46.416 143.808 45.648 141.376 45.648C138.901 45.648 136.939 46.416 135.488 47.952C134.08 49.4453 133.376 51.6 133.376 54.416V74H124.416V38.544H133.376V42.96C134.571 41.424 136.085 40.2293 137.92 39.376C139.797 38.48 141.845 38.032 144.064 38.032ZM171.273 34.32C169.694 34.32 168.371 33.8293 167.305 32.848C166.281 31.824 165.769 30.5653 165.769 29.072C165.769 27.5787 166.281 26.3413 167.305 25.36C168.371 24.336 169.694 23.824 171.273 23.824C172.851 23.824 174.153 24.336 175.177 25.36C176.243 26.3413 176.777 27.5787 176.777 29.072C176.777 30.5653 176.243 31.824 175.177 32.848C174.153 33.8293 172.851 34.32 171.273 34.32ZM175.689 38.544V74H166.729V38.544H175.689ZM193.501 44.048C194.653 42.1707 196.146 40.6987 197.981 39.632C199.858 38.5653 201.992 38.032 204.381 38.032V47.44H202.013C199.197 47.44 197.064 48.1013 195.613 49.424C194.205 50.7467 193.501 53.0507 193.501 56.336V74H184.541V38.544H193.501V44.048ZM225.2 65.744L234.16 38.544H243.696L230.576 74H219.696L206.64 38.544H216.24L225.2 65.744ZM246.424 56.144C246.424 52.56 247.128 49.3813 248.536 46.608C249.987 43.8347 251.929 41.7013 254.361 40.208C256.835 38.7147 259.587 37.968 262.617 37.968C265.262 37.968 267.566 38.5013 269.529 39.568C271.534 40.6347 273.134 41.9787 274.329 43.6V38.544H283.353V74H274.329V68.816C273.177 70.48 271.577 71.8667 269.529 72.976C267.523 74.0427 265.198 74.576 262.553 74.576C259.566 74.576 256.835 73.808 254.361 72.272C251.929 70.736 249.987 68.5813 248.536 65.808C247.128 62.992 246.424 59.7707 246.424 56.144ZM274.329 56.272C274.329 54.096 273.902 52.24 273.049 50.704C272.195 49.1253 271.043 47.9307 269.593 47.12C268.142 46.2667 266.585 45.84 264.921 45.84C263.257 45.84 261.721 46.2453 260.312 47.056C258.905 47.8667 257.753 49.0613 256.857 50.64C256.003 52.176 255.577 54.0107 255.577 56.144C255.577 58.2773 256.003 60.1547 256.857 61.776C257.753 63.3547 258.905 64.5707 260.312 65.424C261.763 66.2773 263.299 66.704 264.921 66.704C266.585 66.704 268.142 66.2987 269.593 65.488C271.043 64.6347 272.195 63.44 273.049 61.904C273.902 60.3253 274.329 58.448 274.329 56.272ZM311.752 38.032C315.976 38.032 319.389 39.376 321.992 42.064C324.594 44.7093 325.896 48.4213 325.896 53.2V74H316.936V54.416C316.936 51.6 316.232 49.4453 314.824 47.952C313.416 46.416 311.496 45.648 309.064 45.648C306.589 45.648 304.626 46.416 303.176 47.952C301.768 49.4453 301.064 51.6 301.064 54.416V74H292.104V38.544H301.064V42.96C302.258 41.424 303.773 40.2293 305.608 39.376C307.485 38.48 309.533 38.032 311.752 38.032ZM332.112 56.144C332.112 52.56 332.816 49.3813 334.224 46.608C335.675 43.8347 337.616 41.7013 340.048 40.208C342.523 38.7147 345.275 37.968 348.304 37.968C350.949 37.968 353.253 38.5013 355.216 39.568C357.221 40.6347 358.821 41.9787 360.016 43.6V38.544H369.04V74H360.016V68.816C358.864 70.48 357.264 71.8667 355.216 72.976C353.211 74.0427 350.885 74.576 348.24 74.576C345.253 74.576 342.523 73.808 340.048 72.272C337.616 70.736 335.675 68.5813 334.224 65.808C332.816 62.992 332.112 59.7707 332.112 56.144ZM360.016 56.272C360.016 54.096 359.589 52.24 358.736 50.704C357.883 49.1253 356.731 47.9307 355.28 47.12C353.829 46.2667 352.272 45.84 350.608 45.84C348.944 45.84 347.408 46.2453 346 47.056C344.592 47.8667 343.44 49.0613 342.544 50.64C341.691 52.176 341.264 54.0107 341.264 56.144C341.264 58.2773 341.691 60.1547 342.544 61.776C343.44 63.3547 344.592 64.5707 346 65.424C347.451 66.2773 348.987 66.704 350.608 66.704C352.272 66.704 353.829 66.2987 355.28 65.488C356.731 64.6347 357.883 63.44 358.736 61.904C359.589 60.3253 360.016 58.448 360.016 56.272Z" fill="#E50914"/>
<defs>
<linearGradient id="paint0_linear_22_2" x1="20" y1="59" x2="111.5" y2="91.5" gradientUnits="userSpaceOnUse">
<stop stop-color="#720909"/>
<stop offset="0.463542" stop-color="#B10B0B"/>
<stop offset="1" stop-color="#E50914"/>
</linearGradient>
<linearGradient id="paint1_linear_22_2" x1="104" y1="72" x2="15" y2="59" gradientUnits="userSpaceOnUse">
<stop stop-color="#E50914"/>
<stop offset="0.46875" stop-color="#B10B0B"/>
<stop offset="1" stop-color="#720909"/>
</linearGradient>
</defs>
</svg>
